<svg width="16" height="18" viewBox="0 0 16 18" fill="none" xmlns="http://www.w3.org/2000/svg">
<g clip-path="url(#clip0_1_647)">
<path d="M13.8312 1.45557C14.2706 1.01611 14.9843 1.01611 15.4237 1.45557C15.8632 1.89502 15.8632 2.60869 15.4237 3.04814L9.46826 9.0001L15.4202 14.9556C15.8597 15.395 15.8597 16.1087 15.4202 16.5481C14.9808 16.9876 14.2671 16.9876 13.8276 16.5481L7.87568 10.5927L1.92021 16.5446C1.48076 16.9841 0.76709 16.9841 0.327637 16.5446C-0.111816 16.1052 -0.111816 15.3915 0.327637 14.9521L6.28311 9.0001L0.331152 3.04463C-0.108301 2.60518 -0.108301 1.89502 0.331152 1.45557C0.770605 1.01611 1.48428 1.01611 1.92373 1.45557L7.87568 7.40752L13.8312 1.45557Z" fill="white"/>
</g>
<defs>
<clipPath id="clip0_1_647">
<rect width="15.75" height="18" fill="white"/>
</clipPath>
</defs>
</svg>
